<mxfile modified="2022-05-20T02:34:52.459Z" host="app.diagrams.net" agent="5.0 (Windows NT 10.0; Win64; x64) AppleWebKit/537.36 (KHTML, like Gecko) Chrome/101.0.4951.54 Safari/537.36" etag="WZSxC_bVbMBMuHzy5p0-" compressed="false" version="18.0.8" type="google">
  <diagram name="CountryType" id="T8qMVdzdqlT6s8HkwZ6l">
    <mxGraphModel grid="1" page="1" gridSize="10" guides="1" tooltips="1" connect="1" arrows="1" fold="1" pageScale="1" pageWidth="850" pageHeight="1100" math="0" shadow="0">
      <root>
        <mxCell id="wF8GBNgwsvZnK6qSJ_7T-0" />
        <mxCell id="wF8GBNgwsvZnK6qSJ_7T-1" value="Diagram" parent="wF8GBNgwsvZnK6qSJ_7T-0" />
        <mxCell id="wF8GBNgwsvZnK6qSJ_7T-77" value="List N.Types (within current Tenancy)" style="text;html=1;strokeColor=none;fillColor=none;align=left;verticalAlign=middle;whiteSpace=wrap;rounded=0;dashed=1;fontFamily=Helvetica;fontSize=12;" vertex="1" parent="wF8GBNgwsvZnK6qSJ_7T-1">
          <mxGeometry x="400" y="300" width="320" height="20" as="geometry" />
        </mxCell>
        <mxCell id="wF8GBNgwsvZnK6qSJ_7T-78" value="CountryType" style="text;html=1;strokeColor=none;fillColor=none;align=left;verticalAlign=middle;whiteSpace=wrap;rounded=0;dashed=1;fontSize=12;fontFamily=Courier New;" vertex="1" parent="wF8GBNgwsvZnK6qSJ_7T-1">
          <mxGeometry x="160" y="300" width="200" height="20" as="geometry" />
        </mxCell>
        <mxCell id="wF8GBNgwsvZnK6qSJ_7T-79" value="CountryType/{uuid}" style="text;html=1;strokeColor=none;fillColor=none;align=left;verticalAlign=middle;whiteSpace=wrap;rounded=0;dashed=1;fontSize=12;fontFamily=Courier New;" vertex="1" parent="wF8GBNgwsvZnK6qSJ_7T-1">
          <mxGeometry x="160" y="380" width="200" height="20" as="geometry" />
        </mxCell>
        <mxCell id="wF8GBNgwsvZnK6qSJ_7T-80" value="View&amp;nbsp;&lt;span style=&quot;font-size: 12px&quot;&gt;N.Type&amp;nbsp;&lt;/span&gt;{uuid}. Using common non-standard notation." style="text;html=1;strokeColor=none;fillColor=none;align=left;verticalAlign=middle;whiteSpace=wrap;rounded=0;dashed=1;fontFamily=Helvetica;fontSize=11;" vertex="1" parent="wF8GBNgwsvZnK6qSJ_7T-1">
          <mxGeometry x="400" y="380" width="320" height="20" as="geometry" />
        </mxCell>
        <mxCell id="wF8GBNgwsvZnK6qSJ_7T-81" value="GET" style="text;html=1;strokeColor=none;fillColor=none;align=left;verticalAlign=middle;whiteSpace=wrap;rounded=0;dashed=1;fontSize=12;fontFamily=Courier New;" vertex="1" parent="wF8GBNgwsvZnK6qSJ_7T-1">
          <mxGeometry x="120" y="300" width="40" height="20" as="geometry" />
        </mxCell>
        <mxCell id="wF8GBNgwsvZnK6qSJ_7T-82" value="GET" style="text;html=1;strokeColor=none;fillColor=none;align=left;verticalAlign=middle;whiteSpace=wrap;rounded=0;dashed=1;fontSize=12;fontFamily=Courier New;" vertex="1" parent="wF8GBNgwsvZnK6qSJ_7T-1">
          <mxGeometry x="120" y="380" width="40" height="20" as="geometry" />
        </mxCell>
        <mxCell id="wF8GBNgwsvZnK6qSJ_7T-83" value="POST" style="text;html=1;strokeColor=none;fillColor=none;align=left;verticalAlign=middle;whiteSpace=wrap;rounded=0;dashed=1;fontSize=12;fontFamily=Courier New;" vertex="1" parent="wF8GBNgwsvZnK6qSJ_7T-1">
          <mxGeometry x="120" y="440" width="40" height="20" as="geometry" />
        </mxCell>
        <mxCell id="wF8GBNgwsvZnK6qSJ_7T-84" value="CountryType" style="text;html=1;strokeColor=none;fillColor=none;align=left;verticalAlign=middle;whiteSpace=wrap;rounded=0;dashed=1;fontSize=12;fontFamily=Courier New;" vertex="1" parent="wF8GBNgwsvZnK6qSJ_7T-1">
          <mxGeometry x="160" y="440" width="200" height="20" as="geometry" />
        </mxCell>
        <mxCell id="wF8GBNgwsvZnK6qSJ_7T-85" value="POST" style="text;html=1;strokeColor=none;fillColor=none;align=left;verticalAlign=middle;whiteSpace=wrap;rounded=0;dashed=1;fontSize=12;fontFamily=Courier New;" vertex="1" parent="wF8GBNgwsvZnK6qSJ_7T-1">
          <mxGeometry x="120" y="460" width="40" height="20" as="geometry" />
        </mxCell>
        <mxCell id="wF8GBNgwsvZnK6qSJ_7T-86" value="CountryType(&#39;{uuid}&#39;)" style="text;html=1;strokeColor=none;fillColor=none;align=left;verticalAlign=middle;whiteSpace=wrap;rounded=0;dashed=1;fontSize=12;fontFamily=Courier New;" vertex="1" parent="wF8GBNgwsvZnK6qSJ_7T-1">
          <mxGeometry x="160" y="460" width="200" height="20" as="geometry" />
        </mxCell>
        <mxCell id="wF8GBNgwsvZnK6qSJ_7T-87" value="Create&amp;nbsp;&lt;span style=&quot;font-size: 12px&quot;&gt;N.Type&lt;/span&gt;, server side generated Id. &lt;b style=&quot;font-size: 11px&quot;&gt;&lt;font color=&quot;#cc0000&quot; style=&quot;font-size: 11px&quot;&gt;&lt;u style=&quot;font-size: 11px&quot;&gt;NOT&lt;/u&gt;&lt;/font&gt; &lt;/b&gt;recommended." style="text;html=1;strokeColor=none;fillColor=none;align=left;verticalAlign=middle;whiteSpace=wrap;rounded=0;dashed=1;fontFamily=Helvetica;fontSize=11;" vertex="1" parent="wF8GBNgwsvZnK6qSJ_7T-1">
          <mxGeometry x="400" y="440" width="320" height="20" as="geometry" />
        </mxCell>
        <mxCell id="wF8GBNgwsvZnK6qSJ_7T-88" value="Create&amp;nbsp;&lt;span style=&quot;font-size: 12px&quot;&gt;N.Type&lt;/span&gt;, client side generated UUID. &lt;font color=&quot;#009900&quot; size=&quot;1&quot;&gt;&lt;b&gt;RECOMMENDED&lt;/b&gt;&lt;/font&gt;." style="text;html=1;strokeColor=none;fillColor=none;align=left;verticalAlign=middle;whiteSpace=wrap;rounded=0;dashed=1;fontFamily=Helvetica;fontSize=11;" vertex="1" parent="wF8GBNgwsvZnK6qSJ_7T-1">
          <mxGeometry x="400" y="460" width="320" height="20" as="geometry" />
        </mxCell>
        <mxCell id="wF8GBNgwsvZnK6qSJ_7T-89" value="PUT" style="text;html=1;strokeColor=none;fillColor=none;align=left;verticalAlign=middle;whiteSpace=wrap;rounded=0;dashed=1;fontSize=12;fontFamily=Courier New;" vertex="1" parent="wF8GBNgwsvZnK6qSJ_7T-1">
          <mxGeometry x="120" y="420" width="40" height="20" as="geometry" />
        </mxCell>
        <mxCell id="wF8GBNgwsvZnK6qSJ_7T-90" value="CountryType(&#39;{uuid}&#39;)" style="text;html=1;strokeColor=none;fillColor=none;align=left;verticalAlign=middle;whiteSpace=wrap;rounded=0;dashed=1;fontSize=12;fontFamily=Courier New;" vertex="1" parent="wF8GBNgwsvZnK6qSJ_7T-1">
          <mxGeometry x="160" y="420" width="200" height="20" as="geometry" />
        </mxCell>
        <mxCell id="wF8GBNgwsvZnK6qSJ_7T-91" value="Edit N.Type {uuid}. Using ODATA Standard notation." style="text;html=1;strokeColor=none;fillColor=none;align=left;verticalAlign=middle;whiteSpace=wrap;rounded=0;dashed=1;fontFamily=Helvetica;fontSize=12;" vertex="1" parent="wF8GBNgwsvZnK6qSJ_7T-1">
          <mxGeometry x="400" y="420" width="320" height="20" as="geometry" />
        </mxCell>
        <mxCell id="wF8GBNgwsvZnK6qSJ_7T-92" value="DELETE" style="text;html=1;strokeColor=none;fillColor=none;align=left;verticalAlign=middle;whiteSpace=wrap;rounded=0;dashed=1;fontSize=10;fontFamily=Courier New;" vertex="1" parent="wF8GBNgwsvZnK6qSJ_7T-1">
          <mxGeometry x="120" y="480" width="40" height="20" as="geometry" />
        </mxCell>
        <mxCell id="wF8GBNgwsvZnK6qSJ_7T-93" value="CountryType(&#39;{uuid}&#39;)" style="text;html=1;strokeColor=none;fillColor=none;align=left;verticalAlign=middle;whiteSpace=wrap;rounded=0;dashed=1;fontSize=12;fontFamily=Courier New;" vertex="1" parent="wF8GBNgwsvZnK6qSJ_7T-1">
          <mxGeometry x="160" y="480" width="200" height="20" as="geometry" />
        </mxCell>
        <mxCell id="wF8GBNgwsvZnK6qSJ_7T-94" value="Delete N.Type {uuid}" style="text;html=1;strokeColor=none;fillColor=none;align=left;verticalAlign=middle;whiteSpace=wrap;rounded=0;dashed=1;fontFamily=Helvetica;fontSize=12;" vertex="1" parent="wF8GBNgwsvZnK6qSJ_7T-1">
          <mxGeometry x="400" y="480" width="320" height="20" as="geometry" />
        </mxCell>
        <mxCell id="wF8GBNgwsvZnK6qSJ_7T-96" value="List&amp;nbsp;&lt;span style=&quot;font-size: 12px&quot;&gt;N.Types&lt;/span&gt;, page 3, using ODATA standard filter arguments." style="text;html=1;strokeColor=none;fillColor=none;align=left;verticalAlign=middle;whiteSpace=wrap;rounded=0;dashed=1;fontFamily=Helvetica;fontSize=11;" vertex="1" parent="wF8GBNgwsvZnK6qSJ_7T-1">
          <mxGeometry x="400" y="340" width="320" height="20" as="geometry" />
        </mxCell>
        <mxCell id="wF8GBNgwsvZnK6qSJ_7T-97" value="&lt;font style=&quot;font-size: 11px&quot;&gt;&lt;span style=&quot;font-size: 12px&quot;&gt;CountryType&lt;/span&gt;?$top=80&amp;amp;$skip=60&lt;/font&gt;" style="text;html=1;strokeColor=none;fillColor=none;align=left;verticalAlign=middle;whiteSpace=wrap;rounded=0;dashed=1;fontSize=12;fontFamily=Courier New;" vertex="1" parent="wF8GBNgwsvZnK6qSJ_7T-1">
          <mxGeometry x="160" y="340" width="230" height="20" as="geometry" />
        </mxCell>
        <mxCell id="wF8GBNgwsvZnK6qSJ_7T-98" value="GET" style="text;html=1;strokeColor=none;fillColor=none;align=left;verticalAlign=middle;whiteSpace=wrap;rounded=0;dashed=1;fontSize=12;fontFamily=Courier New;" vertex="1" parent="wF8GBNgwsvZnK6qSJ_7T-1">
          <mxGeometry x="120" y="340" width="40" height="20" as="geometry" />
        </mxCell>
        <mxCell id="wF8GBNgwsvZnK6qSJ_7T-99" value="Count N.Types, using ODATA standard filter arguments." style="text;html=1;strokeColor=none;fillColor=none;align=left;verticalAlign=middle;whiteSpace=wrap;rounded=0;dashed=1;fontFamily=Helvetica;fontSize=12;" vertex="1" parent="wF8GBNgwsvZnK6qSJ_7T-1">
          <mxGeometry x="400" y="320" width="320" height="20" as="geometry" />
        </mxCell>
        <mxCell id="wF8GBNgwsvZnK6qSJ_7T-100" value="CountryType?$count=true" style="text;html=1;strokeColor=none;fillColor=none;align=left;verticalAlign=middle;whiteSpace=wrap;rounded=0;dashed=1;fontSize=12;fontFamily=Courier New;" vertex="1" parent="wF8GBNgwsvZnK6qSJ_7T-1">
          <mxGeometry x="160" y="320" width="200" height="20" as="geometry" />
        </mxCell>
        <mxCell id="wF8GBNgwsvZnK6qSJ_7T-101" value="GET" style="text;html=1;strokeColor=none;fillColor=none;align=left;verticalAlign=middle;whiteSpace=wrap;rounded=0;dashed=1;fontSize=12;fontFamily=Courier New;" vertex="1" parent="wF8GBNgwsvZnK6qSJ_7T-1">
          <mxGeometry x="120" y="320" width="40" height="20" as="geometry" />
        </mxCell>
        <mxCell id="wF8GBNgwsvZnK6qSJ_7T-140" value="List N.Types that meet a custom search criteria." style="text;html=1;strokeColor=none;fillColor=none;align=left;verticalAlign=middle;whiteSpace=wrap;rounded=0;dashed=1;fontFamily=Helvetica;fontSize=12;" vertex="1" parent="wF8GBNgwsvZnK6qSJ_7T-1">
          <mxGeometry x="400" y="360" width="320" height="20" as="geometry" />
        </mxCell>
        <mxCell id="wF8GBNgwsvZnK6qSJ_7T-141" value="CountryType?$search=xyz" style="text;html=1;strokeColor=none;fillColor=none;align=left;verticalAlign=middle;whiteSpace=wrap;rounded=0;dashed=1;fontSize=12;fontFamily=Courier New;" vertex="1" parent="wF8GBNgwsvZnK6qSJ_7T-1">
          <mxGeometry x="160" y="360" width="200" height="20" as="geometry" />
        </mxCell>
        <mxCell id="wF8GBNgwsvZnK6qSJ_7T-142" value="GET" style="text;html=1;strokeColor=none;fillColor=none;align=left;verticalAlign=middle;whiteSpace=wrap;rounded=0;dashed=1;fontSize=12;fontFamily=Courier New;" vertex="1" parent="wF8GBNgwsvZnK6qSJ_7T-1">
          <mxGeometry x="120" y="360" width="40" height="20" as="geometry" />
        </mxCell>
        <mxCell id="wF8GBNgwsvZnK6qSJ_7T-196" value="Description" style="text;html=1;strokeColor=none;fillColor=#f5f5f5;align=left;verticalAlign=middle;whiteSpace=wrap;rounded=0;fontSize=12;fontFamily=Helvetica;fontColor=#333333;fontStyle=0" vertex="1" parent="wF8GBNgwsvZnK6qSJ_7T-1">
          <mxGeometry x="400" y="200" width="320" height="20" as="geometry" />
        </mxCell>
        <mxCell id="wF8GBNgwsvZnK6qSJ_7T-197" value="URL" style="text;html=1;strokeColor=none;fillColor=#f5f5f5;align=left;verticalAlign=middle;whiteSpace=wrap;rounded=0;fontSize=12;fontFamily=Helvetica;fontColor=#333333;fontStyle=0" vertex="1" parent="wF8GBNgwsvZnK6qSJ_7T-1">
          <mxGeometry x="160" y="200" width="230" height="20" as="geometry" />
        </mxCell>
        <mxCell id="wF8GBNgwsvZnK6qSJ_7T-198" value="&lt;font style=&quot;font-size: 10px;&quot;&gt;VERB&lt;/font&gt;" style="text;html=1;strokeColor=none;fillColor=#f5f5f5;align=left;verticalAlign=middle;whiteSpace=wrap;rounded=0;fontSize=10;fontFamily=Helvetica;fontColor=#333333;fontStyle=0" vertex="1" parent="wF8GBNgwsvZnK6qSJ_7T-1">
          <mxGeometry x="120" y="200" width="30" height="20" as="geometry" />
        </mxCell>
        <mxCell id="wF8GBNgwsvZnK6qSJ_7T-199" value="&lt;font style=&quot;font-size: 9px&quot;&gt;&lt;span style=&quot;font-size: 10px&quot;&gt;SummaryItems&lt;/span&gt;?$search=CountryType,abc:xyz&lt;/font&gt;" style="text;html=1;strokeColor=none;fillColor=none;align=left;verticalAlign=middle;whiteSpace=wrap;rounded=0;dashed=1;fontSize=9;fontFamily=Courier New;" vertex="1" parent="wF8GBNgwsvZnK6qSJ_7T-1">
          <mxGeometry x="160" y="260" width="250" height="20" as="geometry" />
        </mxCell>
        <mxCell id="wF8GBNgwsvZnK6qSJ_7T-200" value="GET" style="text;html=1;strokeColor=none;fillColor=none;align=left;verticalAlign=middle;whiteSpace=wrap;rounded=0;dashed=1;fontSize=12;fontFamily=Courier New;" vertex="1" parent="wF8GBNgwsvZnK6qSJ_7T-1">
          <mxGeometry x="120" y="260" width="40" height="20" as="geometry" />
        </mxCell>
        <mxCell id="wF8GBNgwsvZnK6qSJ_7T-201" value="&lt;font style=&quot;font-size: 10px&quot;&gt;SummaryItems?$search=CountryType:xyz&lt;/font&gt;" style="text;html=1;strokeColor=none;fillColor=none;align=left;verticalAlign=middle;whiteSpace=wrap;rounded=0;dashed=1;fontSize=10;fontFamily=Courier New;" vertex="1" parent="wF8GBNgwsvZnK6qSJ_7T-1">
          <mxGeometry x="160" y="240" width="240" height="20" as="geometry" />
        </mxCell>
        <mxCell id="wF8GBNgwsvZnK6qSJ_7T-202" value="GET" style="text;html=1;strokeColor=none;fillColor=none;align=left;verticalAlign=middle;whiteSpace=wrap;rounded=0;dashed=1;fontSize=12;fontFamily=Courier New;" vertex="1" parent="wF8GBNgwsvZnK6qSJ_7T-1">
          <mxGeometry x="120" y="240" width="40" height="20" as="geometry" />
        </mxCell>
        <mxCell id="wF8GBNgwsvZnK6qSJ_7T-203" value="List SummaryItems of type N.Type custom matching xyz" style="text;html=1;strokeColor=none;fillColor=none;align=left;verticalAlign=middle;whiteSpace=wrap;rounded=0;dashed=1;fontFamily=Helvetica;fontSize=12;" vertex="1" parent="wF8GBNgwsvZnK6qSJ_7T-1">
          <mxGeometry x="400" y="240" width="320" height="20" as="geometry" />
        </mxCell>
        <mxCell id="wF8GBNgwsvZnK6qSJ_7T-204" value="&lt;font style=&quot;font-size: 11px&quot;&gt;List SummaryItems of type N.Type &amp;amp; abc custom matching xyz&lt;/font&gt;" style="text;html=1;strokeColor=none;fillColor=none;align=left;verticalAlign=middle;whiteSpace=wrap;rounded=0;dashed=1;fontFamily=Helvetica;fontSize=12;" vertex="1" parent="wF8GBNgwsvZnK6qSJ_7T-1">
          <mxGeometry x="400" y="260" width="320" height="20" as="geometry" />
        </mxCell>
        <mxCell id="5ZJqYq11fbvxbrqz1hA8-0" value="Title/Diagram" parent="wF8GBNgwsvZnK6qSJ_7T-0" />
        <mxCell id="aKjAG9MWlovy6WBci8t_-0" value="&lt;font style=&quot;font-size: 12px ; font-weight: normal&quot;&gt;&lt;i&gt;Diagram: Base&amp;nbsp;&lt;/i&gt;&lt;i&gt;System&amp;nbsp;&lt;/i&gt;&lt;i&gt;Logical Module -&amp;nbsp;&lt;/i&gt;&lt;i&gt;Interoperability&amp;nbsp;&lt;/i&gt;&lt;i&gt;- APIs - CountryType&lt;br&gt;&lt;/i&gt;&lt;/font&gt;" style="text;strokeColor=none;fillColor=none;html=1;fontSize=12;fontStyle=1;verticalAlign=middle;align=left;shadow=0;glass=0;comic=0;opacity=30;fontColor=#808080;" vertex="1" parent="5ZJqYq11fbvxbrqz1hA8-0">
          <mxGeometry x="120" y="520" width="560" height="20" as="geometry" />
        </mxCell>
        <mxCell id="5ZJqYq11fbvxbrqz1hA8-1" value="Title/Page" visible="0" parent="wF8GBNgwsvZnK6qSJ_7T-0" />
        <mxCell id="aKjAG9MWlovy6WBci8t_-1" value="" style="group;fontSize=12;" vertex="1" connectable="0" parent="5ZJqYq11fbvxbrqz1hA8-1">
          <mxGeometry x="120" y="120" width="600" height="45" as="geometry" />
        </mxCell>
        <mxCell id="aKjAG9MWlovy6WBci8t_-2" value="&lt;font style=&quot;font-size: 12px&quot;&gt;Base Logical Module - Interoperability&amp;nbsp;- APIs - NotificationType&lt;/font&gt;" style="text;strokeColor=none;fillColor=none;html=1;fontSize=12;fontStyle=1;verticalAlign=middle;align=left;shadow=0;glass=0;comic=0;opacity=30;fontColor=#808080;" vertex="1" parent="aKjAG9MWlovy6WBci8t_-1">
          <mxGeometry y="20" width="600" height="20" as="geometry" />
        </mxCell>
        <mxCell id="aKjAG9MWlovy6WBci8t_-3" value="" style="line;strokeWidth=2;html=1;shadow=0;glass=0;comic=0;fillColor=none;fontSize=10;fontColor=#CCCCCC;labelBackgroundColor=none;strokeColor=#CCCCCC;" vertex="1" parent="aKjAG9MWlovy6WBci8t_-1">
          <mxGeometry y="35" width="600" height="10" as="geometry" />
        </mxCell>
        <mxCell id="5ZJqYq11fbvxbrqz1hA8-2" value="About" parent="wF8GBNgwsvZnK6qSJ_7T-0" />
      </root>
    </mxGraphModel>
  </diagram>
</mxfile>
